<svg width="36" height="36" viewBox="0 0 36 36" fill="none" xmlns="http://www.w3.org/2000/svg">
<mask id="path-1-inside-1" fill="white">
<path d="M10.5 3C13.17 3 14.505 6.24 12.63 8.13C10.74 10.005 7.5 8.67 7.5 6C7.5 5.20435 7.81607 4.44129 8.37868 3.87868C8.94129 3.31607 9.70435 3 10.5 3ZM8.25 10.5H12.75C13.5456 10.5 14.3087 10.8161 14.8713 11.3787C15.4339 11.9413 15.75 12.7044 15.75 13.5V21.75H13.5V33H7.5V21.75H5.25V13.5C5.25 12.7044 5.56607 11.9413 6.12868 11.3787C6.69129 10.8161 7.45435 10.5 8.25 10.5ZM31.5 12H22.5V15H31.5V12ZM31.5 16.5H27V19.5H31.5V16.5ZM31.5 3H22.5V6H31.5V3ZM31.5 7.5H27V10.5H31.5V7.5ZM31.5 21H22.5V24H31.5V21ZM31.5 30H22.5V33H31.5V30ZM31.5 25.5H27V28.5H31.5"/>
</mask>
<path d="M12.63 8.13L14.0386 9.54984L14.0442 9.54422L14.0498 9.53857L12.63 8.13ZM12.75 10.5V8.5V10.5ZM15.75 21.75V23.75H17.75V21.75H15.75ZM13.5 21.75V19.75H11.5V21.75H13.5ZM13.5 33V35H15.5V33H13.5ZM7.5 33H5.5V35H7.5V33ZM7.5 21.75H9.5V19.75H7.5V21.75ZM5.25 21.75H3.25V23.75H5.25V21.75ZM31.5 12H33.5V10H31.5V12ZM22.5 12V10H20.5V12H22.5ZM22.5 15H20.5V17H22.5V15ZM31.5 15V17H33.5V15H31.5ZM31.5 16.5H33.5V14.5H31.5V16.5ZM27 16.5V14.5H25V16.5H27ZM27 19.5H25V21.5H27V19.5ZM31.5 19.5V21.5H33.5V19.5H31.5ZM31.5 3H33.5V1H31.5V3ZM22.5 3V1H20.5V3H22.5ZM22.5 6H20.5V8H22.5V6ZM31.5 6V8H33.5V6H31.5ZM31.5 7.5H33.5V5.5H31.5V7.5ZM27 7.5V5.5H25V7.5H27ZM27 10.5H25V12.5H27V10.5ZM31.5 10.5V12.5H33.5V10.5H31.5ZM31.5 21H33.5V19H31.5V21ZM22.5 21V19H20.5V21H22.5ZM22.5 24H20.5V26H22.5V24ZM31.5 24V26H33.5V24H31.5ZM31.5 30H33.5V28H31.5V30ZM22.5 30V28H20.5V30H22.5ZM22.5 33H20.5V35H22.5V33ZM31.5 33V35H33.5V33H31.5ZM27 25.5V23.5H25V25.5H27ZM27 28.5H25V30.5H27V28.5ZM10.5 5C11.3768 5 11.8437 6.08285 11.2102 6.72143L14.0498 9.53857C17.1663 6.39715 14.9632 1 10.5 1V5ZM11.2214 6.71016C10.5828 7.34368 9.5 6.87683 9.5 6H5.5C5.5 10.4632 10.8972 12.6663 14.0386 9.54984L11.2214 6.71016ZM9.5 6C9.5 5.73478 9.60536 5.48043 9.79289 5.29289L6.96447 2.46447C6.02678 3.40215 5.5 4.67392 5.5 6H9.5ZM9.79289 5.29289C9.98043 5.10536 10.2348 5 10.5 5V1C9.17392 1 7.90215 1.52678 6.96447 2.46447L9.79289 5.29289ZM8.25 12.5H12.75V8.5H8.25V12.5ZM12.75 12.5C13.0152 12.5 13.2696 12.6054 13.4571 12.7929L16.2855 9.96447C15.3479 9.02678 14.0761 8.5 12.75 8.5V12.5ZM13.4571 12.7929C13.6446 12.9804 13.75 13.2348 13.75 13.5H17.75C17.75 12.1739 17.2232 10.9021 16.2855 9.96447L13.4571 12.7929ZM13.75 13.5V21.75H17.75V13.5H13.75ZM15.75 19.75H13.5V23.75H15.75V19.75ZM11.5 21.75V33H15.5V21.75H11.5ZM13.5 31H7.5V35H13.5V31ZM9.5 33V21.75H5.5V33H9.5ZM7.5 19.75H5.25V23.75H7.5V19.75ZM7.25 21.75V13.5H3.25V21.75H7.25ZM7.25 13.5C7.25 13.2348 7.35536 12.9804 7.54289 12.7929L4.71447 9.96447C3.77678 10.9021 3.25 12.1739 3.25 13.5H7.25ZM7.54289 12.7929C7.73043 12.6054 7.98478 12.5 8.25 12.5V8.5C6.92392 8.5 5.65215 9.02678 4.71447 9.96447L7.54289 12.7929ZM31.5 10H22.5V14H31.5V10ZM20.5 12V15H24.5V12H20.5ZM22.5 17H31.5V13H22.5V17ZM33.5 15V12H29.5V15H33.5ZM31.5 14.5H27V18.5H31.5V14.5ZM25 16.5V19.5H29V16.5H25ZM27 21.5H31.5V17.5H27V21.5ZM33.5 19.5V16.5H29.5V19.5H33.5ZM31.5 1H22.5V5H31.5V1ZM20.5 3V6H24.5V3H20.5ZM22.5 8H31.5V4H22.5V8ZM33.5 6V3H29.5V6H33.5ZM31.5 5.5H27V9.5H31.5V5.5ZM25 7.5V10.5H29V7.5H25ZM27 12.5H31.5V8.5H27V12.5ZM33.5 10.5V7.5H29.5V10.5H33.5ZM31.5 19H22.5V23H31.5V19ZM20.5 21V24H24.5V21H20.5ZM22.5 26H31.5V22H22.5V26ZM33.5 24V21H29.5V24H33.5ZM31.5 28H22.5V32H31.5V28ZM20.5 30V33H24.5V30H20.5ZM22.5 35H31.5V31H22.5V35ZM33.5 33V30H29.5V33H33.5ZM31.5 23.5H27V27.5H31.5V23.5ZM25 25.5V28.5H29V25.5H25ZM27 30.5H31.5V26.5H27V30.5Z" fill="#F78D28" mask="url(#path-1-inside-1)"/>
</svg>
