<svg width="40" height="40" viewBox="0 0 40 40" fill="none" xmlns="http://www.w3.org/2000/svg">
<path d="M8.53335 35.4833L6.18335 33.1333L22.2667 17.0333L21.9333 16.6667C21.6244 16.3599 21.3793 15.9951 21.212 15.5932C21.0447 15.1914 20.9586 14.7603 20.9586 14.325C20.9586 13.8897 21.0447 13.4587 21.212 13.0568C21.3793 12.6549 21.6244 12.2901 21.9333 11.9833L29.1667 4.70001L30.7167 6.23335L25.3167 11.6667L26.9167 13.2333L32.3167 7.81668L33.85 9.35001L28.4333 14.75L30 16.35L35.4333 10.9333L36.9667 12.5L29.6833 19.7333C28.3833 21.0333 26.2833 21.0333 25 19.7333L24.6333 19.4L8.53335 35.4833Z" fill="#5ED5E3"/>
</svg>
