<svg width="40" height="40" viewBox="0 0 40 40" fill="none" xmlns="http://www.w3.org/2000/svg">
<path d="M10.5716 32.5333C8.07152 30.0329 6.66699 26.6418 6.66699 23.1058C6.66699 19.5699 8.07152 16.1788 10.5716 13.6783L20 4.25L29.4283 13.6783C31.9289 16.1789 33.3337 19.5704 33.3337 23.1067C33.3337 26.643 31.9289 30.0344 29.4283 32.535C26.9278 35.0355 23.5363 36.4403 20 36.4403C16.4637 36.4403 13.0722 35.0355 10.5716 32.535V32.5333Z" stroke="#5254E3" stroke-width="2"/>
<path d="M16.1533 21C16.1533 21.5788 16.2035 22.0117 16.3037 22.2988C16.4085 22.5814 16.5749 22.7227 16.8027 22.7227C17.2402 22.7227 17.459 22.1484 17.459 21C17.459 19.8607 17.2402 19.291 16.8027 19.291C16.5749 19.291 16.4085 19.4323 16.3037 19.7148C16.2035 19.9928 16.1533 20.4212 16.1533 21ZM19.1816 20.9863C19.1816 22.0345 18.9788 22.8229 18.5732 23.3516C18.1676 23.8757 17.5729 24.1377 16.7891 24.1377C16.0371 24.1377 15.4561 23.8688 15.0459 23.3311C14.6357 22.7887 14.4307 22.0072 14.4307 20.9863C14.4307 18.9036 15.2168 17.8623 16.7891 17.8623C17.5592 17.8623 18.1494 18.1335 18.5596 18.6758C18.9743 19.2135 19.1816 19.9837 19.1816 20.9863ZM23.8848 18.0059L18.3408 28H16.7002L22.2441 18.0059H23.8848ZM23.1533 24.9922C23.1533 25.571 23.2035 26.0039 23.3037 26.291C23.4085 26.5736 23.5749 26.7148 23.8027 26.7148C24.2402 26.7148 24.459 26.1406 24.459 24.9922C24.459 23.8529 24.2402 23.2832 23.8027 23.2832C23.5749 23.2832 23.4085 23.4245 23.3037 23.707C23.2035 23.985 23.1533 24.4134 23.1533 24.9922ZM26.1816 24.9785C26.1816 26.0221 25.9788 26.8083 25.5732 27.3369C25.1676 27.861 24.5729 28.123 23.7891 28.123C23.0371 28.123 22.4561 27.8542 22.0459 27.3164C21.6357 26.7741 21.4307 25.9948 21.4307 24.9785C21.4307 22.8958 22.2168 21.8545 23.7891 21.8545C24.5592 21.8545 25.1494 22.1257 25.5596 22.668C25.9743 23.2057 26.1816 23.9759 26.1816 24.9785Z" fill="#5254E3"/>
</svg>
