<svg width="15" height="21" viewBox="0 0 15 21" fill="none" xmlns="http://www.w3.org/2000/svg">
<line y1="20" x2="15" y2="20" stroke="#3A3E46" stroke-width="2"/>
<path d="M2.86523 13H1.07812V4.43359H5.98828V5.92188H2.86523V8.13086H5.77148V9.61328H2.86523V13ZM11.168 6.32617C11.9414 6.32617 12.5469 6.62891 12.9844 7.23438C13.4219 7.83594 13.6406 8.66211 13.6406 9.71289C13.6406 10.7949 13.4141 11.6328 12.9609 12.2266C12.5117 12.8203 11.8984 13.1172 11.1211 13.1172C10.3516 13.1172 9.74805 12.8379 9.31055 12.2793H9.1875L8.88867 13H7.52344V3.88281H9.31055V6.00391C9.31055 6.27344 9.28711 6.70508 9.24023 7.29883H9.31055C9.72852 6.65039 10.3477 6.32617 11.168 6.32617ZM10.5938 7.75586C10.1523 7.75586 9.83008 7.89258 9.62695 8.16602C9.42383 8.43555 9.31836 8.88281 9.31055 9.50781V9.70117C9.31055 10.4043 9.41406 10.9082 9.62109 11.2129C9.83203 11.5176 10.1641 11.6699 10.6172 11.6699C10.9844 11.6699 11.2754 11.502 11.4902 11.166C11.709 10.8262 11.8184 10.334 11.8184 9.68945C11.8184 9.04492 11.709 8.5625 11.4902 8.24219C11.2715 7.91797 10.9727 7.75586 10.5938 7.75586Z" fill="#3A3E46"/>
</svg>
