<svg width="15" height="21" viewBox="0 0 15 21" fill="none" xmlns="http://www.w3.org/2000/svg">
<line y1="20" x2="15" y2="20" stroke="#3A3E46" stroke-width="2"/>
<path d="M2.07812 13V4.43359H3.89453V13H2.07812ZM11.957 13H10.1699V9.17383C10.1699 8.70117 10.0859 8.34766 9.91797 8.11328C9.75 7.875 9.48242 7.75586 9.11523 7.75586C8.61523 7.75586 8.25391 7.92383 8.03125 8.25977C7.80859 8.5918 7.69727 9.14453 7.69727 9.91797V13H5.91016V6.44922H7.27539L7.51562 7.28711H7.61523C7.81445 6.9707 8.08789 6.73242 8.43555 6.57227C8.78711 6.4082 9.18555 6.32617 9.63086 6.32617C10.3926 6.32617 10.9707 6.5332 11.3652 6.94727C11.7598 7.35742 11.957 7.95117 11.957 8.72852V13Z" fill="#3A3E46"/>
</svg>
