<svg width="15" height="15" viewBox="0 0 15 15" fill="none" xmlns="http://www.w3.org/2000/svg">
<path d="M6.81592 2.37306L6.81592 3.55959C6.81592 3.62697 6.84521 3.69142 6.89648 3.73683L10.5923 6.94338L2.34375 6.94338C2.2793 6.94338 2.22656 6.99611 2.22656 7.06056L2.22656 7.93947C2.22656 8.00392 2.2793 8.05666 2.34375 8.05666L10.5923 8.05666L6.89648 11.2632C6.84521 11.3071 6.81592 11.3716 6.81592 11.4404L6.81592 12.627C6.81592 12.7266 6.93457 12.7808 7.00928 12.7149L12.6123 7.85304C12.663 7.8091 12.7037 7.75476 12.7315 7.69373C12.7594 7.63269 12.7738 7.56638 12.7738 7.49928C12.7738 7.43219 12.7594 7.36588 12.7315 7.30484C12.7037 7.2438 12.663 7.18947 12.6123 7.14552L7.00928 2.28517C6.9331 2.21926 6.81592 2.27346 6.81592 2.37306Z" fill="#3A3E46"/>
</svg>
