<svg width="18" height="21" viewBox="0 0 18 21" fill="none" xmlns="http://www.w3.org/2000/svg">
<path d="M1 20H16" stroke="#3A3E46" stroke-width="2"/>
<path d="M4.38281 13H2.56641V5.94531H0.240234V4.43359H6.70898V5.94531H4.38281V13ZM13.2715 13L12.7676 10.709L12.0879 7.81445H12.0469L10.8516 13H8.92969L7.06641 6.44922H8.84766L9.60352 9.34961C9.72461 9.86914 9.84766 10.5859 9.97266 11.5H10.0078C10.0234 11.2031 10.0918 10.7324 10.2129 10.0879L10.3066 9.58984L11.1152 6.44922H13.084L13.8516 9.58984C13.8672 9.67578 13.8906 9.80273 13.9219 9.9707C13.957 10.1387 13.9902 10.3184 14.0215 10.5098C14.0527 10.6973 14.0801 10.8828 14.1035 11.0664C14.1309 11.2461 14.1465 11.3906 14.1504 11.5H14.1855C14.2207 11.2188 14.2832 10.834 14.373 10.3457C14.4629 9.85352 14.5273 9.52148 14.5664 9.34961L15.3516 6.44922H17.1035L15.2168 13H13.2715Z" fill="#3A3E46"/>
</svg>
