<svg width="22" height="22" viewBox="0 0 22 22" fill="none" xmlns="http://www.w3.org/2000/svg">
<path d="M18.4443 16.4055C18.039 15.4455 17.4509 14.5735 16.7127 13.8381C15.9767 13.1005 15.1049 12.5125 14.1453 12.1064C14.1367 12.1021 14.1281 12.1 14.1195 12.0957C15.458 11.1289 16.3281 9.5541 16.3281 7.77734C16.3281 4.83398 13.9434 2.44922 11 2.44922C8.05663 2.44922 5.67187 4.83398 5.67187 7.77734C5.67187 9.5541 6.54198 11.1289 7.88046 12.0979C7.87187 12.1021 7.86327 12.1043 7.85468 12.1086C6.89218 12.5146 6.02851 13.0969 5.2873 13.8402C4.54976 14.5762 3.96172 15.4481 3.55566 16.4076C3.15674 17.347 2.94159 18.3542 2.92187 19.3746C2.92129 19.3975 2.92532 19.4204 2.9337 19.4417C2.94208 19.4631 2.95465 19.4825 2.97066 19.4989C2.98668 19.5153 3.00582 19.5284 3.02696 19.5373C3.0481 19.5462 3.07081 19.5508 3.09374 19.5508H4.38281C4.47734 19.5508 4.55253 19.4756 4.55468 19.3832C4.59765 17.7246 5.26366 16.1713 6.44101 14.9939C7.65917 13.7758 9.27695 13.1055 11 13.1055C12.723 13.1055 14.3408 13.7758 15.559 14.9939C16.7363 16.1713 17.4023 17.7246 17.4453 19.3832C17.4475 19.4777 17.5226 19.5508 17.6172 19.5508H18.9062C18.9292 19.5508 18.9519 19.5462 18.973 19.5373C18.9942 19.5284 19.0133 19.5153 19.0293 19.4989C19.0453 19.4825 19.0579 19.4631 19.0663 19.4417C19.0747 19.4204 19.0787 19.3975 19.0781 19.3746C19.0566 18.3477 18.8439 17.3486 18.4443 16.4055ZM11 11.4727C10.0139 11.4727 9.08573 11.0881 8.38749 10.3898C7.68925 9.6916 7.30468 8.76348 7.30468 7.77734C7.30468 6.79121 7.68925 5.86309 8.38749 5.16484C9.08573 4.4666 10.0139 4.08203 11 4.08203C11.9861 4.08203 12.9142 4.4666 13.6125 5.16484C14.3107 5.86309 14.6953 6.79121 14.6953 7.77734C14.6953 8.76348 14.3107 9.6916 13.6125 10.3898C12.9142 11.0881 11.9861 11.4727 11 11.4727Z" fill="#3A3E46"/>
</svg>
